<svg xmlns="http://www.w3.org/2000/svg" viewBox="0 0 24 24" fill="none">
  <defs>
    <linearGradient id="wingGrad" x1="0%" y1="0%" x2="100%" y2="100%">
      <stop offset="0%" stop-color="#00f3ff" />
      <stop offset="100%" stop-color="#8b5cf6" />
    </linearGradient>
  </defs>
  <path d="M3 15c4.5 0 9-2.5 12-6.5 2.5-3.3 3.5-6.5 3-7.5-.8-.8-4 .2-7.3 2.7C6.7 7 4.2 11.5 4.2 16c0 .8.2 1.6.5 2.3L3 15z" fill="url(#wingGrad)" opacity="0.9"/>
  <path d="M5.5 19.5c3.5 0 7-2 9-5 2-3 2.5-5.5 2-6.5-.5-.5-3 .5-6 2.5-3 2-5 5.5-5 9 0 .5.1 1 .2 1.5L5.5 19.5z" fill="url(#wingGrad)" opacity="0.65"/>
  <path d="M8 22c2.5 0 5-1.5 6.5-3.5 1.5-2 2-4 1.5-5-.3-.4-2 .3-4.2 1.7-2.2 1.4-3.8 4-3.8 6.8 0 .4 0 .8.1 1.2L8 22z" fill="url(#wingGrad)" opacity="0.4"/>
</svg>